<?xml version="1.0" encoding="UTF-8" standalone="no"?>
<svg
   version="1.2"
   viewBox="0.00 0.00 637.00 637.00"
   id="svg1"
   sodipodi:docname="logo_small.svg"
   inkscape:version="1.3.2 (091e20ef0f, 2023-11-25, custom)"
   xmlns:inkscape="http://www.inkscape.org/namespaces/inkscape"
   xmlns:sodipodi="http://sodipodi.sourceforge.net/DTD/sodipodi-0.dtd"
   xmlns="http://www.w3.org/2000/svg"
   xmlns:svg="http://www.w3.org/2000/svg">
  <defs
     id="defs1" />
  <sodipodi:namedview
     id="namedview1"
     pagecolor="#ffffff"
     bordercolor="#666666"
     borderopacity="1.0"
     inkscape:showpageshadow="2"
     inkscape:pageopacity="0.0"
     inkscape:pagecheckerboard="0"
     inkscape:deskcolor="#d1d1d1"
     inkscape:zoom="1.5934066"
     inkscape:cx="318.5"
     inkscape:cy="318.18621"
     inkscape:window-width="3438"
     inkscape:window-height="1420"
     inkscape:window-x="1440"
     inkscape:window-y="560"
     inkscape:window-maximized="1"
     inkscape:current-layer="svg1" />
  <path
     fill="#e0f3ff"
     d="m 315.45272,87.45634 h 5.20369 c 7.75418,0.582813 14.18177,2.117553 19.28278,4.604221 4.1685,2.031519 8.19545,4.321141 12.08087,6.868866 12.9662,8.509063 25.88245,16.804433 38.74873,24.886103 0.67717,0.4274 1.03519,0.24423 1.07404,-0.5495 0.45793,-9.15849 4.38775,-17.51769 11.67291,-22.9212 4.42383,-3.280404 8.90039,-5.317474 13.42967,-6.11121 7.23244,-1.259985 13.63505,-0.943601 19.20785,0.949153 11.77837,4.007532 18.7305,12.000397 20.85637,23.978587 0.56616,3.20824 0.79652,7.00485 0.69105,11.38983 -0.30806,12.3473 -0.16651,25.02764 -0.14986,36.85042 -8e-5,0.67337 0.32655,1.30174 0.87422,1.68183 2.47002,1.73734 4.55703,3.15829 6.26107,4.26286 29.03518,18.81653 58.02595,37.63028 86.97233,56.44126 3.68837,2.38953 7.41837,4.31282 11.27326,6.25275 6.92715,3.49132 12.36119,8.584 16.30211,15.27802 2.54217,4.31837 4.02418,9.25007 4.44603,14.79512 v 3.77163 c -0.58837,7.37675 -3.10833,13.6406 -7.55991,18.79155 -6.26108,7.23798 -14.57033,10.99019 -24.92774,11.25662 -4.87898,0.12489 -9.90782,0.14986 -14.82843,-0.11656 -5.21201,-0.28308 -9.25839,1.84834 -9.26672,7.73475 -0.0666,60.86787 -0.0583,120.33143 0.025,178.39069 0.0111,6.43314 -0.32194,11.51471 -0.99911,15.24472 -4.69581,25.85191 -26.21825,45.99226 -52.63632,47.94052 -1.85391,0.13321 -3.71058,0.27198 -5.57003,0.41629 H 168.17592 c -20.24303,-0.98246 -35.94568,-9.10853 -47.10793,-24.37823 -6.2028,-8.48409 -10.14927,-18.63336 -10.8986,-28.82426 -0.21647,-2.95292 -0.33304,-6.0335 -0.34969,-9.24174 -0.0833,-14.3261 -0.0583,-30.49221 0.0749,-48.49836 0.006,-0.34413 0.008,-0.69105 0.008,-1.04073 0.0222,-42.32331 0.05,-84.64663 0.0833,-126.96994 0.006,-2.64208 -0.38577,-4.94281 -1.17395,-6.90217 -1.54029,-3.85489 -5.44514,-3.87987 -9.058579,-3.80494 -5.101001,0.11657 -10.560014,0.11934 -16.377041,0.008 -7.682029,-0.14431 -14.450983,-3.01675 -20.306865,-8.61731 -5.600553,-5.35632 -8.850429,-12.27792 -9.749626,-20.76478 v -4.29617 c 1.443156,-12.79967 7.754186,-22.44939 18.933092,-28.94914 1.898304,-1.10458 3.99643,-2.16751 6.294378,-3.18882 2.420061,-1.07127 4.484884,-2.16474 6.194468,-3.28041 27.136873,-17.70641 53.146973,-34.69678 78.030313,-50.97114 21.85271,-14.29279 43.23916,-28.29695 64.15937,-42.01248 18.45019,-12.09476 38.02714,-24.97214 58.73088,-38.632166 4.02973,-2.658737 8.18991,-5.092674 12.48052,-7.301813 4.50708,-2.314599 10.27693,-3.788283 17.30954,-4.421051 z m 18.05887,384.80571 c 6.73288,-3.95758 13.85152,-8.22599 21.35593,-12.80524 3.25265,-1.98156 5.97522,-3.85489 8.16771,-5.61998 6.22777,-5.02884 8.3925,-11.6729 8.49241,-19.45762 0.13322,-11.66735 0.11101,-22.39111 -0.0666,-32.17127 -0.0222,-1.30439 -0.10547,-2.69204 -0.24978,-4.16295 -0.79929,-8.46743 -5.38686,-14.12904 -12.314,-18.42521 -6.13896,-3.80771 -12.56378,-7.77916 -19.27446,-11.91436 -7.03261,-4.33502 -11.95043,-6.89107 -14.75349,-7.66815 -6.67181,-1.84835 -13.09108,-0.97136 -19.2578,2.63098 -6.23887,3.64119 -12.63871,7.6071 -19.19952,11.89771 -4.44603,2.90574 -9.18346,5.42849 -13.06333,8.93369 -5.87809,5.31192 -7.70146,12.4722 -7.38507,20.39012 0.38299,9.5165 0.11656,19.29943 0.008,29.04073 -0.0555,4.53485 0.39687,8.19546 1.35712,10.98186 1.72069,5.0011 5.01497,9.01695 9.88284,12.04758 8.63673,5.36743 17.19021,10.6738 25.66042,15.91911 10.1576,6.28883 20.3707,6.4165 30.6393,0.383 z m 77.36036,-119.85372 c 6.73288,-3.95758 13.85153,-8.22599 21.35593,-12.80524 3.25266,-1.98156 5.97522,-3.85489 8.16771,-5.61998 6.22777,-5.02884 8.3925,-11.6729 8.49241,-19.45762 0.13322,-11.66735 0.11101,-22.39111 -0.0666,-32.17127 -0.0222,-1.30439 -0.10547,-2.69203 -0.24978,-4.16295 -0.79929,-8.46743 -5.38686,-14.12904 -12.314,-18.42521 -6.13896,-3.80771 -12.56378,-7.77916 -19.27446,-11.91436 -7.03261,-4.33502 -11.95043,-6.89107 -14.75349,-7.66815 -6.67181,-1.84835 -13.09108,-0.97136 -19.2578,2.63098 -6.23887,3.64119 -12.63871,7.6071 -19.19952,11.89771 -4.44603,2.90574 -9.18346,5.42849 -13.06333,8.93369 -5.87809,5.31192 -7.70146,12.4722 -7.38507,20.39012 0.38299,9.5165 0.11656,19.29943 0.008,29.04074 -0.0555,4.53484 0.39687,8.19545 1.35712,10.98185 1.72069,5.0011 5.01497,9.01695 9.88284,12.04758 8.63673,5.36743 17.19021,10.6738 25.66042,15.91911 10.1576,6.28883 20.3707,6.4165 30.6393,0.383 z m -154.4468,0.0954 c 6.73288,-3.95758 13.85153,-8.22599 21.35593,-12.80523 3.25266,-1.98157 5.97522,-3.85489 8.16771,-5.61998 6.22777,-5.02885 8.3925,-11.67291 8.49241,-19.45763 0.13322,-11.66735 0.11101,-22.39111 -0.0666,-32.17126 -0.0222,-1.3044 -0.10547,-2.69204 -0.24978,-4.16295 -0.79929,-8.46744 -5.38686,-14.12905 -12.314,-18.42521 -6.13896,-3.80771 -12.56378,-7.77917 -19.27446,-11.91436 -7.03261,-4.33502 -11.95043,-6.89107 -14.75349,-7.66816 -6.67181,-1.84835 -13.09108,-0.97135 -19.2578,2.63099 -6.23887,3.64119 -12.63871,7.6071 -19.19952,11.89771 -4.44603,2.90573 -9.18346,5.42848 -13.06333,8.93368 -5.87809,5.31193 -7.70146,12.4722 -7.38507,20.39013 0.38299,9.5165 0.11656,19.29943 0.008,29.04073 -0.0555,4.53484 0.39687,8.19545 1.35712,10.98186 1.72069,5.00109 5.01497,9.01694 9.88284,12.04757 8.63673,5.36743 17.19021,10.6738 25.66042,15.91912 10.1576,6.28882 20.3707,6.41649 30.6393,0.38299 z"
     id="path1"
     sodipodi:nodetypes="cccccccccccccccccccccccccccccccccccccscccccccscccccccccccccccccccccccccccccccccccccccccccccccccccccccc"
     style="stroke-width:0.83259" />
</svg>
